<svg width="51" height="45" viewBox="0 0 51 45" fill="none" xmlns="http://www.w3.org/2000/svg">
<path d="M43.3823 20.5224C44.6678 25.2663 44.0085 30.3244 41.5494 34.5841C39.0904 38.8439 35.033 41.9563 30.2697 43.2368C25.5064 44.517 20.4276 43.8604 16.1504 41.4114C11.8732 38.9624 8.74799 34.9215 7.46225 30.1777C6.17676 25.4339 6.83606 20.3758 9.29512 16.116C11.7542 11.8563 15.8116 8.74384 20.5748 7.46335C25.3381 6.1831 30.417 6.83971 34.6942 9.28874C38.9714 11.7378 42.0966 15.7786 43.3823 20.5224Z" stroke="#10316B" stroke-width="2" stroke-linecap="round" stroke-linejoin="round"/>
<path d="M41.7824 16.5205C43.1347 16.6131 44.4731 16.8509 45.7741 17.2298C47.7088 17.8333 48.9632 18.7702 49.3034 20.0301C50.4515 24.2649 40.7991 30.5324 27.7769 34.0367C14.7547 37.541 3.24196 36.9481 2.09388 32.7186C1.76966 31.5276 2.29586 30.183 3.50772 28.7802" stroke="#10316B" stroke-width="2" stroke-linecap="round" stroke-linejoin="round"/>
<path d="M45.62 9.46959C47.9683 9.46959 49.8721 7.57361 49.8721 5.2348C49.8721 2.89598 47.9683 1 45.62 1C43.2716 1 41.3678 2.89598 41.3678 5.2348C41.3678 7.57361 43.2716 9.46959 45.62 9.46959Z" stroke="#10316B" stroke-width="2" stroke-linecap="round" stroke-linejoin="round"/>
<path d="M36.0526 4.1761C36.9333 4.1761 37.6472 3.4651 37.6472 2.58805C37.6472 1.71099 36.9333 1 36.0526 1C35.172 1 34.4581 1.71099 34.4581 2.58805C34.4581 3.4651 35.172 4.1761 36.0526 4.1761Z" stroke="#10316B" stroke-width="2" stroke-linecap="round" stroke-linejoin="round"/>
<path d="M11.1085 24.3337C11.1617 23.5721 11.2773 22.8162 11.4539 22.0734" stroke="#10316B" stroke-width="2" stroke-linecap="round" stroke-linejoin="round"/>
<path d="M12.8943 18.3891C13.8306 16.726 15.0925 15.267 16.6054 14.0986C18.1182 12.9301 19.8512 12.0761 21.7016 11.587" stroke="#10316B" stroke-width="2" stroke-linecap="round" stroke-linejoin="round"/>
<path d="M47.3421 29.5848C48.825 31.554 49.3991 33.4067 48.8197 34.9419C47.0763 39.5948 35.4042 39.5578 22.7753 34.8466C10.1464 30.1354 1.29127 22.5498 3.03465 17.9074C3.80004 15.8694 6.46295 14.7313 10.2793 14.4878" stroke="#10316B" stroke-width="2" stroke-linecap="round" stroke-linejoin="round"/>
</svg>
