<svg width="41" height="40" viewBox="0 0 41 40" fill="none" xmlns="http://www.w3.org/2000/svg">
<path d="M12.0245 25.7457C10.2759 25.7457 8.52729 25.8094 6.77869 25.7457C5.36263 25.7376 3.9853 25.2854 2.84333 24.4535C1.70137 23.6216 0.853101 22.4527 0.41958 21.1135C-0.536323 18.45 0.145663 15.2537 2.41885 13.5224C3.71281 12.5323 4.07999 11.5016 4.27816 9.96142C4.79691 5.96613 6.94774 2.91466 10.8122 1.46709C14.6766 0.0195226 18.4593 0.494327 21.6243 3.37788C21.9913 3.74587 22.451 4.00928 22.9554 4.14066C23.4598 4.27205 23.9905 4.26658 24.492 4.12483C28.2807 3.39525 31.4223 5.06864 32.8679 8.61229C33.0384 9.17274 33.3562 9.67792 33.7885 10.0758C34.2208 10.4738 34.752 10.7501 35.3275 10.8763C37.1083 11.4031 38.6396 12.5473 39.6429 14.1009C40.6463 15.6544 41.055 17.5141 40.7948 19.3417C40.0954 23.198 37.1286 25.6531 33.0252 25.7631C32.1544 25.8355 31.279 25.8355 30.4082 25.7631C29.6569 25.5864 28.9233 25.3422 28.2166 25.0335C28.8841 24.7872 29.5701 24.5936 30.2683 24.4545C31.0318 24.356 31.8187 24.4545 32.5998 24.4545C36.1494 24.3503 38.8247 22.1731 39.1686 19.1332C39.5825 15.4738 37.7465 12.8508 33.8879 12.1212C32.4598 11.8491 32.0343 11.2353 31.6846 10.002C30.6355 6.23828 27.657 4.62279 23.8975 5.85033C22.6152 6.26723 22.0557 5.85033 21.2105 5.02811C17.0605 0.922806 11.0278 1.3455 7.51311 5.85612C6.23367 7.45759 5.62977 9.48982 5.82861 11.5248C5.92187 12.6423 5.58966 13.204 4.61627 13.8062C1.81851 15.5432 0.984953 17.6799 1.79514 20.3608C2.57035 22.9258 4.6512 24.4139 7.77537 24.4545C10.6897 24.5066 13.604 24.4545 16.5184 24.4545C17.1008 24.4046 17.687 24.4162 18.267 24.4892C18.64 24.5645 18.9548 24.9351 19.2987 25.1725C18.914 25.3751 18.5351 25.7515 18.1329 25.7515C16.0929 25.8152 14.0529 25.7805 12.0187 25.7805L12.0245 25.7457Z" fill="#F7BC51"/>
<path d="M15.5217 19.2953C18.5234 19.2953 21.5193 19.2953 24.5211 19.2953C25.1958 19.3489 25.8747 19.3079 26.5379 19.1737C27.0164 19.0641 27.4362 18.7803 27.7146 18.3784C27.9929 17.9765 28.1096 17.4855 28.0417 17.0024C28.0371 16.5144 27.8395 16.0479 27.4917 15.7034C27.1438 15.3589 26.6735 15.1641 26.1823 15.1611C25.7102 15.1205 25.2147 15.2711 24.7426 15.2306C24.4073 15.1519 24.0853 15.0251 23.7868 14.8542C23.9733 14.5531 24.0899 14.1478 24.3696 13.9625C25.5354 13.1519 26.7536 13.3835 27.8668 14.1362C29.1725 15.0163 29.8602 16.2149 29.5397 17.813C29.1317 19.8628 27.6453 20.9166 24.9874 20.9282C19.1588 20.9629 13.3767 20.9282 7.57135 20.9282C6.89675 20.9921 6.21758 20.9921 5.54298 20.9282C5.05078 20.7511 4.58735 20.5033 4.16742 20.1928C4.66286 19.8975 5.15242 19.3648 5.65369 19.3532C8.92358 19.2606 12.2168 19.2953 15.5217 19.2953Z" fill="#F7BC51"/>
<path d="M12.4324 29.1098C9.13922 29.1098 5.85188 29.1098 2.55868 29.1098C2.16816 29.1098 1.77764 28.7393 1.39294 28.5308C1.78347 28.2124 2.12736 27.7202 2.55868 27.6044C3.22872 27.5104 3.90753 27.4948 4.58121 27.5581C9.90863 27.5581 15.2322 27.5581 20.5518 27.5581C21.327 27.5581 22.248 27.7375 22.8308 27.3901C23.5478 26.9617 24.3696 26.1105 24.4396 25.3693C24.5503 24.2808 23.7226 23.447 22.4578 23.3543C22.2654 23.3543 22.0673 23.4006 21.8749 23.3543C21.2921 23.279 20.7092 23.169 20.1263 23.0764C20.7092 22.6479 21.1813 21.9994 21.8108 21.8257C23.6527 21.3277 25.6635 22.8737 25.9841 24.8772C26.0691 25.4011 26.0377 25.9372 25.8923 26.4478C25.7469 26.9585 25.4909 27.4314 25.1422 27.8335C24.7936 28.2356 24.3607 28.5571 23.8738 28.7756C23.387 28.994 22.8579 29.1042 22.3237 29.0983C19.0364 29.2025 15.7431 29.0983 12.4499 29.0983L12.4324 29.1098Z" fill="#F7BC51"/>
<path d="M22.2713 32.5609C25.7685 32.5609 29.2657 32.503 32.7629 32.5609C35.2517 32.6188 36.7148 34.4195 36.3592 36.7414C36.2758 37.2915 36.0636 37.8145 35.7397 38.2683C35.4158 38.722 34.9893 39.094 34.4943 39.3542C33.9994 39.6144 33.4499 39.7556 32.89 39.7664C32.3302 39.7772 31.7755 39.6574 31.2708 39.4165C30.9619 39.2602 30.8511 38.7043 30.6471 38.328C30.9572 38.1666 31.292 38.057 31.638 38.0037C32.0052 38.0037 32.3724 38.3106 32.7338 38.3106C33.0022 38.3327 33.2723 38.301 33.5281 38.2174C33.7839 38.1338 34.0202 38 34.223 37.8239C34.4258 37.6478 34.5909 37.4331 34.7085 37.1925C34.8262 36.9518 34.894 36.6901 34.9079 36.423C34.8439 35.9821 34.686 35.5599 34.4448 35.1845C34.2036 34.8091 33.8845 34.4891 33.509 34.2458C32.8562 33.8289 31.8362 33.9042 30.9735 33.9042C24.766 33.9042 18.5526 33.9042 12.3217 33.8579C11.5757 33.8579 10.8354 33.4062 10.0952 33.1688C10.8253 32.8815 11.5891 32.687 12.3684 32.5898C15.6616 32.5203 18.9664 32.5898 22.2771 32.5898L22.2713 32.5609Z" fill="#F7BC51"/>
</svg>
