<svg width="46" height="41" viewBox="0 0 46 41" fill="none" xmlns="http://www.w3.org/2000/svg">
<path d="M22.7214 34.3221C16.1893 34.8622 9.27298 28.544 9.34343 20.8138C9.36835 17.2088 10.7845 13.7577 13.2874 11.2024C15.7903 8.64719 19.18 7.19185 22.7279 7.14932C29.9324 7.14932 36.1763 13.4675 36.1763 20.8138C36.1358 24.4118 34.7002 27.8485 32.1811 30.3776C29.6621 32.9066 26.2628 34.3241 22.7214 34.3221ZM34.364 20.983C34.364 14.1833 29.3753 8.95173 22.8368 8.9192C21.2896 8.89924 19.754 9.19318 18.3201 9.78379C16.8861 10.3744 15.5826 11.2498 14.4858 12.3588C13.389 13.4677 12.5211 14.7879 11.9328 16.2419C11.3445 17.696 11.0477 19.2547 11.0597 20.8268C11.0597 27.594 15.9716 32.6368 22.8111 32.78C29.1703 32.9231 34.3448 27.4118 34.364 20.983Z" fill="#F7BC51"/>
<path d="M41.069 21.8549C40.0379 21.7443 38.9941 21.6727 37.9695 21.5035C37.7709 21.5035 37.5019 21.022 37.5147 20.7812C37.5275 20.5405 37.8414 20.1305 38.0271 20.1305C40.2386 20.0698 42.448 20.0568 44.6552 20.0915C44.8473 20.0915 45.2316 20.56 45.1931 20.7422C45.0907 21.0936 44.8025 21.6401 44.5527 21.6662C43.4064 21.7638 42.2409 21.7052 41.0818 21.7052L41.069 21.8549Z" fill="#F7BC51"/>
<path d="M4.36751 19.9939C5.22118 19.9437 6.07732 19.9567 6.92912 20.033C7.32617 20.0915 7.66564 20.5405 8.03067 20.8138C7.7617 21.1001 7.49272 21.6337 7.21094 21.6402C5.07626 21.6966 2.96292 21.6966 0.870938 21.6402C0.569949 21.6402 0.288181 21.1326 0 20.8593C0.300989 20.5926 0.589198 20.1306 0.9094 20.1045C2.06212 20.0134 3.23402 20.0655 4.39315 20.0655L4.36751 19.9939Z" fill="#F7BC51"/>
<path d="M15.9011 7.05171C15.6194 7.59829 15.5617 7.8976 15.4208 7.94315C15.1711 8.02774 14.6972 8.06678 14.6203 7.94315C13.3651 5.84359 12.1506 3.71584 10.9765 1.55989C10.906 1.43625 11.2455 1.01982 11.4696 0.811596C11.553 0.764887 11.6465 0.740387 11.7417 0.740387C11.8369 0.740387 11.9306 0.764887 12.0139 0.811596C13.3652 2.93935 14.6844 5.08663 15.9011 7.05171Z" fill="#F7BC51"/>
<path d="M34.4664 1.49481C34.3287 1.89527 34.1662 2.28647 33.9798 2.66605C33.0448 4.33181 32.1098 5.99758 31.1043 7.6178C30.9442 7.87807 30.464 7.91061 30.0925 8.04726C29.9965 7.65684 29.7083 7.16232 29.8428 6.90204C30.8738 4.94998 31.9818 2.99791 33.1025 1.04584C33.1966 0.929149 33.318 0.838251 33.4556 0.781426C33.5931 0.724601 33.7426 0.703654 33.8901 0.720493C34.1143 0.81159 34.2487 1.19549 34.4664 1.49481Z" fill="#F7BC51"/>
<path d="M15.2992 33.5283C15.4593 33.9577 15.7923 34.4067 15.6835 34.6149C14.6396 36.6125 13.5317 38.5841 12.3918 40.5297C12.2833 40.6267 12.1527 40.6947 12.0119 40.7277C11.871 40.7606 11.7242 40.7574 11.5849 40.7184C11.3287 40.4776 11.0149 39.9375 11.1174 39.7358C12.1228 37.8358 13.1987 35.9749 14.3194 34.1269C14.4347 33.8926 14.8125 33.8406 15.2992 33.5283Z" fill="#F7BC51"/>
<path d="M34.5113 39.7619C34.2487 40.2889 34.1911 40.5947 34.063 40.6273C33.7941 40.6988 33.3201 40.7314 33.2369 40.5882C32.0521 38.5971 30.8994 36.58 29.7979 34.5368C29.7211 34.3872 30.0029 33.9707 30.2014 33.756C30.2942 33.7171 30.3948 33.701 30.4949 33.7089C30.5951 33.7168 30.6919 33.7486 30.7778 33.8015C32.1034 35.8382 33.3457 37.8879 34.5113 39.7619Z" fill="#F7BC51"/>
<path d="M9.04893 27.7762C9.43317 27.9193 9.68935 27.9323 9.78541 28.0625C9.89405 28.3405 9.95473 28.6354 9.96474 28.9344C9.96424 28.9889 9.9512 29.0426 9.92675 29.0912C9.90229 29.1397 9.86704 29.1819 9.82379 29.2142C8.63264 29.7955 7.42868 30.3529 6.21191 30.8865C6.06494 30.6581 5.9487 30.4108 5.86615 30.1512C6.91641 29.2858 8.02429 28.5114 9.04893 27.7762Z" fill="#F7BC51"/>
<path d="M39.6601 11.0209C39.436 11.5285 39.3848 11.9059 39.1734 12.062C38.5094 12.5965 37.7822 13.0446 37.0089 13.3959C36.4599 13.4733 35.9014 13.4446 35.363 13.3113C35.5999 12.9014 35.7472 12.3613 36.093 12.1076C36.8666 11.5475 37.695 11.07 38.565 10.6826C38.8019 10.5719 39.2247 10.8713 39.6601 11.0209Z" fill="#F7BC51"/>
<path d="M39.5192 30.5416C39.2886 30.6652 38.8788 31.0556 38.6803 30.9645C37.5756 30.3793 36.5063 29.7275 35.4783 29.0125C35.446 28.8395 35.4511 28.6616 35.4931 28.4908C35.5351 28.32 35.6131 28.1606 35.7216 28.0234C36.4517 27.5875 39.3719 29.3768 39.5192 30.5416Z" fill="#F7BC51"/>
<path d="M10.0991 13.1291C9.87291 13.3698 9.60334 13.5642 9.30505 13.7018C8.98756 13.7327 8.67067 13.637 8.42129 13.435C7.52473 12.7452 6.6666 12.0035 5.79565 11.2812C6.01339 11.0665 6.34 10.6305 6.43606 10.676C7.64001 11.2747 8.81189 11.9384 9.97742 12.5956C10.0351 12.6346 10.0223 12.7973 10.0991 13.1291Z" fill="#F7BC51"/>
<path d="M23.458 37.4715C23.458 38.6297 23.5732 39.1047 23.458 39.4756C23.2269 39.8888 22.9354 40.264 22.5934 40.5883C22.3691 40.2605 22.1842 39.9066 22.0427 39.5341C21.9437 39.1062 21.9437 38.6607 22.0427 38.2328C22.2348 37.3804 22.5166 36.554 22.76 35.7146C23.0673 36.528 23.4003 37.3218 23.458 37.4715Z" fill="#F7BC51"/>
<path d="M23.5283 3.08249C23.528 3.80563 23.4745 4.52774 23.3682 5.24278C23.3192 5.38067 23.2384 5.50462 23.1325 5.60425C23.0267 5.70387 22.8989 5.77627 22.7599 5.81538C22.6211 5.79891 22.4889 5.7458 22.3765 5.66133C22.2642 5.57685 22.1756 5.46396 22.1195 5.33388C21.9642 4.82482 21.9183 4.28783 21.9849 3.75921C22.1747 2.90254 22.4121 2.05747 22.6959 1.22803C23.0545 2.00235 23.3938 2.78317 23.5283 3.08249Z" fill="#F7BC51"/>
</svg>
